<?xml version="1.0" encoding="utf-8"?>
<!-- Generator: Adobe Illustrator 22.0.1, SVG Export Plug-In . SVG Version: 6.00 Build 0)  -->
<svg version="1.1" id="Layer_1" xmlns="http://www.w3.org/2000/svg" xmlns:xlink="http://www.w3.org/1999/xlink" x="0px" y="0px"
	 viewBox="0 0 288 180" style="enable-background:new 0 0 288 180;" xml:space="preserve">
<style type="text/css">
	.st0{opacity:0.8;}
	.st1{fill:#FF9494;}
	.st2{fill:#F15A24;}
	.st3{fill:#B7FDCB;}
	.st4{fill:#00FF00;}
	.st5{fill:none;}
	.st6{fill:#999999;}
	.st7{font-family:'CourierNewPSMT';}
	.st8{font-size:24px;}
	.st9{opacity:0.15;fill:none;stroke:#19A9FD;stroke-width:16;stroke-linecap:round;stroke-miterlimit:10;}
	.st10{opacity:0.15;}
	.st11{fill:none;stroke:#19A9FD;stroke-width:8;stroke-linecap:square;stroke-miterlimit:10;}
	.st12{fill:none;stroke:#19A9FD;stroke-width:8;stroke-linecap:square;stroke-miterlimit:10;stroke-dasharray:11.1016,11.1016;}
	.st13{fill:none;stroke:#19A9FD;stroke-width:8;stroke-linecap:square;stroke-miterlimit:10;stroke-dasharray:10.9716,10.9716;}
</style>
<g class="st0">
	<rect x="18.5" y="108.5" class="st1" width="79" height="32"/>
	<path class="st2" d="M97,109v31H19v-31H97 M98,108H18v33h80V108L98,108z"/>
</g>
<g>
	<rect x="17.5" y="13.5" class="st3" width="79" height="32"/>
	<path class="st4" d="M96,14v31H18V14H96 M97,13H17v33h80V13L97,13z"/>
</g>
<rect x="20" y="20" class="st5" width="253" height="57"/>
<text transform="matrix(1 0 0 1 20 34.7119)"><tspan x="0" y="0" class="st6 st7 st8">Lorem ipsum dolor </tspan><tspan x="0" y="30" class="st6 st7 st8">sit amet, consec</tspan><tspan x="228.9" y="30" class="st6 st7 st8">-</tspan></text>
<rect class="st9" width="288" height="180"/>
<rect x="20" y="115" class="st5" width="253" height="57"/>
<text transform="matrix(1 0 0 1 20 129.7119)"><tspan x="0" y="0" class="st6 st7 st8">Lorem ipsum dolor </tspan><tspan x="0" y="30" class="st6 st7 st8">sit amet, consec</tspan><tspan x="228.9" y="30" class="st6 st7 st8">-</tspan></text>
<g class="st10">
	<g>
		<line class="st11" x1="13.3" y1="79.1" x2="18.6" y2="81.9"/>
		<polyline class="st11" points="28.6,87.4 33.9,90.2 39.5,88 		"/>
		<polyline class="st12" points="49.7,83.8 54.5,81.9 65.2,86.1 		"/>
		<polyline class="st11" points="70.4,88.1 76,90.2 81.5,87.8 		"/>
		<polyline class="st11" points="89.1,84.3 94.6,81.9 99.6,85.2 		"/>
		<polyline class="st11" points="106.2,89.7 111.2,93 116.8,90.7 		"/>
		<polyline class="st13" points="126.9,86.4 128.8,85.6 149.4,93 163,88.4 		"/>
		<polyline class="st11" points="168.2,86.6 173.9,84.7 179.1,87.6 		"/>
		<polyline class="st11" points="188.2,92.9 193.5,95.8 198.3,92.3 		"/>
		<polyline class="st11" points="206.2,86.4 211.1,82.8 216.5,85.3 		"/>
		<polyline class="st11" points="230.1,91.5 235.5,94 240.6,90.7 		"/>
		<polyline class="st11" points="249.1,85.1 254.1,81.9 259.3,84.9 		"/>
		<polyline class="st11" points="269.5,90.9 274.7,94 278.6,87.5 		"/>
	</g>
</g>
</svg>
