<svg id="Layer_1" data-name="Layer 1" xmlns="http://www.w3.org/2000/svg" viewBox="0 0 128 128"><defs><style>.cls-1,.cls-5{fill:none;}.cls-2{fill:#004fc6;}.cls-3{fill:#fff;stroke:#004fc6;stroke-width:0.3px;}.cls-3,.cls-4,.cls-5{stroke-miterlimit:1;}.cls-4{fill:red;}.cls-4,.cls-5{stroke:#fff;stroke-width:2px;}</style></defs><title>distill_error</title><rect class="cls-1" width="128" height="128"/><path class="cls-2" d="M58.74,21.51C47.13,41.12,40.73,52,40.73,52s-11.9,17.9-6.91,31.73c6.78,18.77,45.52,19.46,51.3-.56,4-13.87-7.78-29.68-10.29-35.21Z"/><path class="cls-2" d="M55.51,19.62C48.74,31,41.41,42.3,35.22,54.06,27.75,68.24,24.7,87.6,40.74,97c12,7,30.11,6.84,41-2.23C97.1,81.94,86.55,62,79.08,48,73.86,38.32,67.71,29,62,19.62c-2.5-4.12-9-.36-6.47,3.78L70.05,47.33c6,9.9,16.21,24.7,10.85,36.57C75.7,95.41,58.14,96.12,48,92.15,32.22,86,35.52,69,42.28,56.75,48.52,45.47,55.41,34.49,62,23.4,64.45,19.24,58,15.46,55.51,19.62Z"/><path class="cls-3" d="M61.2,41.22,41.37,83.7a32.48,32.48,0,0,0,11,5.65,21.71,21.71,0,0,0,19.26-3.66c5.29-4.16,5.6-9.15,5-14.37S69.65,55.59,68.1,53C66.3,50,64.23,46,61.2,41.22Z"/><circle class="cls-4" cx="89.8" cy="88.83" r="16"/><line class="cls-5" x1="82.8" y1="95.83" x2="96.8" y2="81.83"/><line class="cls-5" x1="96.8" y1="95.83" x2="82.8" y2="81.83"/></svg>