<svg id="Layer_1" data-name="Layer 1" xmlns="http://www.w3.org/2000/svg" viewBox="0 0 128 128"><defs><style>.cls-1{fill:#fff;}.cls-2{fill:#004fc6;stroke:#004fc6;stroke-miterlimit:1;stroke-width:0.3px;}</style></defs><title>logo_black</title><path class="cls-1" d="M63.2,18C49.27,41.48,41.59,54.56,41.59,54.56S27.31,76,33.3,92.64C41.43,115.17,87.92,116,94.86,92c4.81-16.65-9.34-35.62-12.35-42.25Z"/><path class="cls-1" d="M56.73,14.16c-8,13.54-16.6,26.91-24,40.77-9.9,18.41-13.58,43.54,7,55.92,15.67,9.41,39.29,8.93,53.46-3.13,8.5-7.25,11.21-18.26,9.64-29C101.16,67.34,95.23,57.77,90,47.84,83.82,36.31,76.46,25.33,69.68,14.16c-5-8.24-18-.71-13,7.57L74.41,50.82C81,61.69,92.89,78.93,87,91.64c-5.49,11.9-24.83,12.62-35.89,8.2C45,97.38,40.41,93.16,39.49,86.74c-1.2-8.42,2.39-17.35,6.34-24.61,7.47-13.7,15.9-27,23.85-40.4C74.61,13.41,61.65,5.85,56.73,14.16Z"/><path class="cls-2" d="M66.15,41.61l-23.8,51a39,39,0,0,0,13.14,6.78c8.51,2.2,16.78.59,23.12-4.4s6.72-11,6-17.24-8.27-18.88-10.13-22C72.26,52.14,69.79,47.3,66.15,41.61Z"/></svg>
