<svg xmlns="http://www.w3.org/2000/svg" width="103" height="44" viewBox="0 0 103 44">
  <defs>
    <linearGradient id="brand-logo-with-name-navbar-a" x1="23.162%" x2="50%" y1="0%" y2="50%">
      <stop offset="0%"/>
      <stop offset="100%"/>
    </linearGradient>
  </defs>
  <g fill="none" fill-rule="evenodd" transform="translate(1 1)">
    <path fill="#00B5FF" d="M49.36,12 L54.64,12 C59.14,12 61.78,15.22 61.78,19 C61.78,22.78 59.16,26 54.64,26 L49.36,26 L49.36,12 Z M54.34,23.28 C57.1,23.28 58.44,21.22 58.44,19 C58.44,16.78 57.1,14.72 54.34,14.72 L52.6,14.72 L52.6,23.28 L54.34,23.28 Z M65.06,15.5 C63.96,15.5 63.18,14.66 63.18,13.64 C63.18,12.6 63.96,11.76 65.06,11.76 C66.16,11.76 66.96,12.6 66.96,13.64 C66.96,14.66 66.16,15.5 65.06,15.5 Z M63.52,16.36 L66.58,16.36 L66.58,26 L63.52,26 L63.52,16.36 Z M72.96,26.3 C70.14,26.3 68.4,24.92 68.4,23.1 L71.44,23.1 C71.44,23.76 72.08,24.24 73.02,24.24 C73.68,24.24 74.14,23.9 74.14,23.34 C74.14,22.96 73.96,22.64 73.44,22.52 L71.08,21.92 C69.48,21.52 68.66,20.52 68.66,19.14 C68.66,17.34 70.24,16.08 72.78,16.08 C75.6,16.08 77.08,17.26 77.08,19.08 L74.06,19.08 C74.06,18.4 73.56,18.02 72.74,18.02 C72.08,18.02 71.64,18.34 71.64,18.82 C71.64,19.26 71.94,19.54 72.46,19.68 L74.74,20.3 C76.22,20.7 77.18,21.6 77.18,22.98 C77.18,24.96 75.6,26.3 72.96,26.3 Z M84.14,23.62 C84.52,23.62 84.92,23.6 85.2,23.56 L85.2,26 C84.76,26.08 84.04,26.16 83.16,26.16 C81.72,26.16 79.74,25.84 79.74,22.62 L79.74,18.78 L78.22,18.78 L78.22,16.36 L79.74,16.36 L79.74,13.5 L82.8,13.5 L82.8,16.36 L84.98,16.36 L84.98,18.78 L82.8,18.78 L82.8,21.98 C82.8,23.4 83.38,23.62 84.14,23.62 Z M88.5,15.5 C87.4,15.5 86.62,14.66 86.62,13.64 C86.62,12.6 87.4,11.76 88.5,11.76 C89.6,11.76 90.4,12.6 90.4,13.64 C90.4,14.66 89.6,15.5 88.5,15.5 Z M86.96,16.36 L90.02,16.36 L90.02,26 L86.96,26 L86.96,16.36 Z M92.54,12 L95.6,12 L95.6,26 L92.54,26 L92.54,12 Z M98.12,12 L101.18,12 L101.18,26 L98.12,26 L98.12,12 Z"/>
    <circle cx="21" cy="21" r="21" fill="#DEE7EE" fill-rule="nonzero" stroke="#DEE7EE" stroke-linecap="square" stroke-linejoin="round"/>
    <g fill-rule="nonzero" transform="translate(6 6)">
      <path fill="#00B5FF" d="M13.7339446,29.7472593 C19.9481263,29.7472593 24.9857159,24.7835721 24.9857159,18.6605537 C24.9857159,12.5375352 20.4940598,7.04431754 20.4940598,2.44575937 C9.9240691,2.7103496 2.48217333,12.5375352 2.48217333,18.6605537 C2.48217333,24.7835721 7.51976294,29.7472593 13.7339446,29.7472593 Z" transform="rotate(-10 13.734 16.097)"/>
      <g stroke-linecap="square" stroke-linejoin="round" stroke-width="1.435" transform="translate(2.482 8.56)">
        <ellipse cx="4.879" cy="4.892" fill="#FFF" fill-opacity=".5" stroke="url(#brand-logo-with-name-navbar-a)" rx="4.879" ry="4.892"/>
        <ellipse cx="18.702" cy="4.892" fill="#FFF" fill-opacity=".5" stroke="url(#brand-logo-with-name-navbar-a)" rx="4.879" ry="4.892"/>
        <path stroke="#000" d="M13.0100119,3.76270672 C11.6627811,3.76270672 10.5706347,4.77347943 10.5706347,6.02033075" transform="rotate(45 11.79 4.892)"/>
      </g>
    </g>
  </g>
</svg>
